<svg width="800" height="520" viewBox="0 0 800 520" fill="none" xmlns="http://www.w3.org/2000/svg">
<path d="M278 348C278 348 352.254 356 400 356C447.746 356 522 348 522 348" stroke="#302EAD" stroke-width="3"/>
<path d="M238.144 16.717C234.884 15.035 226.694 16.0452 223.735 18.9907C220.777 21.9865 218.319 27.1363 218.778 27.3767C219.237 27.6172 234.08 31.4791 234.08 31.4791L248.429 38.1243C248.379 38.1759 253.478 24.6475 238.144 16.717Z" fill="#EAEFFE"/>
<path d="M238.14 16.7121C234.88 15.0303 226.692 16.0403 223.733 18.9853C220.776 21.9806 218.318 27.1296 218.777 27.37C218.93 27.4669 221.109 28.0675 223.793 28.7562C226.741 25.3077 233.793 18.3316 242.531 19.4739C241.251 18.4983 239.821 17.5769 238.14 16.7121Z" fill="white"/>
<path d="M205.404 92.5158C204.593 92.2841 182.691 85.5265 182.651 88.3479C182.612 91.2197 204.716 100.34 207.095 100.885C209.474 101.43 235.3 107.989 235.3 107.989C235.3 107.989 243.731 108.937 242.232 107.162C240.734 105.436 221.818 97.0428 205.404 92.5158Z" fill="#ADAEF0"/>
<path d="M321.382 266.23C324.29 260.916 324.915 254.853 323.228 249.048C321.542 243.295 317.711 238.501 312.41 235.66C311.798 235.323 310.83 234.843 309.864 234.413C309.657 234.166 309.35 233.972 308.996 233.88C308.996 233.88 308.743 233.836 308.338 233.746C308.134 233.65 307.932 233.605 307.778 233.508C307.575 233.412 307.323 233.418 307.122 233.423C303.525 232.505 295.008 230.097 284.72 224.96C272.191 218.721 254.508 207.117 241.132 187.291C229.058 169.398 227.828 147.404 228.959 132.105C230.162 115.444 234.324 102.841 234.371 102.689C234.655 101.875 234.184 101.03 233.423 100.797C232.611 100.515 231.763 100.939 231.529 101.752C231.388 102.209 228.314 111.559 226.64 125.057C224.052 121.846 219.069 117.384 210.157 115.338C199.017 112.743 191.334 116.261 187.954 118.411C190.776 102.062 195.176 91.1672 195.223 91.0149C195.559 90.2505 195.187 89.3526 194.375 89.0705C193.612 88.7367 192.713 89.1119 192.429 89.9254C192.189 90.4857 186.926 103.469 184.221 122.889C183.216 130.02 182.492 138.505 182.694 147.875C183.001 162.079 185.413 178.147 192.104 194.057C207.185 229.867 233.773 250.221 253.404 261.071C273.291 272.066 289.841 275.534 292.473 276.073C305.739 279.119 316.293 275.58 321.382 266.23ZM320.325 249.927C321.793 254.93 321.201 260.187 318.731 264.784C316.163 269.535 309.467 276.758 293.567 273.072C293.516 273.073 293.415 273.026 293.364 273.027C293.364 273.027 293.264 273.029 293.111 272.983C292.959 272.936 292.807 272.889 292.656 272.893C292.555 272.896 292.504 272.847 292.403 272.849C289.772 272.31 281.922 270.439 271.554 266.263C276.942 247.431 286.977 233.825 289.527 230.586C298.325 234.398 305.064 236.146 307.444 236.691C308.563 237.167 310.191 237.933 310.956 238.367C315.543 240.773 318.857 244.924 320.325 249.927ZM187.203 123.319C187.247 123.015 187.291 122.712 187.335 122.408C187.586 122.352 187.835 122.245 188.032 122.038C188.132 121.985 195.945 115.138 209.465 118.278C222.175 121.237 225.98 129.458 226.138 129.807C226.102 130.463 226.015 131.12 225.98 131.827C225.705 135.412 225.588 139.346 225.677 143.476C225.79 148.715 226.262 154.247 227.292 159.967C223.864 157.533 217.601 154.463 208.04 155.004C196.618 155.692 190.032 161.047 187.078 164.246C184.828 148.678 185.677 134.293 187.203 123.319ZM194.898 192.778C191.446 184.548 189.152 176.29 187.719 168.262C187.718 168.211 187.768 168.21 187.767 168.159C187.815 168.057 193.764 158.888 208.155 158.025C221.742 157.233 227.791 164.39 228.049 164.686C228.102 164.785 228.203 164.833 228.255 164.882C230.025 172.196 232.754 179.587 236.984 186.487C234.162 186.457 229.634 186.771 224.734 188.506C217.733 190.948 208.686 196.667 203.84 210.245C200.601 204.883 197.603 199.061 194.898 192.778ZM205.977 213.568C209.361 202.245 216.001 194.772 225.653 191.406C231.754 189.288 237.249 189.454 239.066 189.61C244.685 197.836 251.03 204.683 257.449 210.319C252.422 213.166 238.015 222.647 229.894 240.893C221.524 233.592 213.219 224.626 205.977 213.568ZM254.857 258.313C247.922 254.504 240.105 249.458 232.255 242.9C240.506 223.644 256.525 214.173 259.862 212.376C268.274 219.323 276.594 224.306 283.419 227.714C284.488 228.242 285.558 228.77 286.626 229.247C283.392 233.461 274.003 246.647 268.655 265.025C264.434 263.215 259.75 260.963 254.857 258.313Z" fill="#302EAD"/>
<path d="M243.56 108.069C243.559 108.018 243.559 108.018 243.557 107.968C243.603 107.765 243.649 107.563 243.644 107.311L249.619 38.5694C249.662 38.266 249.657 38.0141 249.6 37.7131C249.648 37.6111 249.698 37.5595 249.695 37.4587C250.923 33.6482 250.739 29.7722 249.454 26.2763C250.762 26.1933 252.116 25.8571 253.413 25.2704C255.159 24.4709 256.843 23.1186 257.913 21.3279C258.448 20.4578 258.88 19.4391 259.111 18.4758C259.341 17.4621 259.42 16.4521 259.349 15.4963C259.278 14.5405 259.056 13.5885 258.734 12.6893C258.412 11.7902 257.942 10.9955 257.27 10.2059C257.114 10.0082 256.911 9.91245 256.658 9.86836C256.102 9.78143 255.505 10.1491 255.418 10.7561L255.372 10.9589C255.237 11.7182 255.153 12.5266 255.068 13.2344C254.982 13.9421 254.847 14.651 254.71 15.3096C254.573 15.9682 254.435 16.5764 254.245 17.1355C254.056 17.6946 253.816 18.255 253.575 18.765C253.284 19.2762 252.992 19.7875 252.549 20.2521C252.156 20.7155 251.712 21.1802 251.168 21.6473C250.327 22.3739 249.334 23.0538 248.242 23.7866C246.196 20.0577 242.756 17.0692 238.343 15.6673C233.827 14.2176 229.104 14.7889 225.217 16.801C224.991 15.6475 224.766 14.5443 224.693 13.5381C224.615 12.2297 224.69 11.0183 224.967 9.85222C225.106 9.29437 225.294 8.68488 225.534 8.12451C225.723 7.56541 226.013 6.95342 226.302 6.34143C226.591 5.72944 226.88 5.11747 227.218 4.45386C227.558 3.84061 227.895 3.12661 228.233 2.46299L228.33 2.25898C228.426 2.05499 228.421 1.80317 228.366 1.60294C228.203 1.05262 227.64 0.663473 227.09 0.828399C226.137 1.05374 225.34 1.47679 224.595 1.94897C223.85 2.47151 223.157 3.04318 222.568 3.76344C221.979 4.48371 221.441 5.25308 221.057 6.11944C220.673 6.9858 220.34 7.90128 220.159 8.86336C219.797 10.7875 220.042 12.7973 220.685 14.5452C221.218 15.9431 222.051 17.1823 223.03 18.1659C220.102 20.2548 217.8 23.2857 216.619 26.9438C216.572 27.0962 216.525 27.2486 216.528 27.3997C216.529 27.4501 216.529 27.4501 216.53 27.5004C216.432 27.6037 216.334 27.7573 216.287 27.9097L181.295 87.446C181.198 87.5996 181.1 87.7533 181.003 87.9069C181.004 87.9573 180.954 88.0089 180.954 88.0089L180.955 88.0592L180.957 88.1096C180.958 88.16 180.958 88.16 180.959 88.2104C180.913 88.4131 180.867 88.6158 180.871 88.8173C180.9 90.1773 182.504 92.1029 190.797 95.8272C191.509 96.1622 192.409 95.8374 192.745 95.073C193.082 94.359 192.761 93.4599 191.998 93.1261C187.673 91.1676 185.631 89.9082 184.658 89.1765C185.564 89.1539 187.127 89.2157 189.705 89.605C195.62 90.5159 204.129 92.6221 213.058 95.4737C222.138 98.3216 230.37 101.543 235.718 104.232C237.959 105.336 239.186 106.162 239.903 106.698C238.795 106.726 236.676 106.628 232.782 105.918C231.973 105.787 231.228 106.31 231.095 107.12C230.961 107.929 231.481 108.672 232.29 108.803C240.894 110.605 243.043 109.795 243.56 108.069ZM244.79 34.2548C241.991 32.9638 238.13 31.4977 234.021 30.189C229.911 28.8803 225.909 27.8713 222.874 27.2919C221.761 27.0676 220.75 26.9416 219.892 26.8622C222.716 19.988 230.395 16.2687 237.598 18.5082C244.802 20.7981 248.891 28.2055 247.234 35.4538C246.572 35.1175 245.757 34.7346 244.79 34.2548Z" fill="#302EAD"/>
<path d="M218.757 29.8133L185.418 86.5364C186.678 86.5554 188.243 86.718 190.164 87.0228C193.348 87.4978 197.246 88.3582 201.552 89.41L228.42 31.6386C223.25 30.2052 219.864 29.7353 218.757 29.8133Z" fill="white"/>
<path d="M268.765 265.1C274.063 246.727 283.452 233.544 286.737 229.33C285.719 228.851 284.649 228.324 283.53 227.798C276.705 224.39 268.337 219.46 259.974 212.463C256.637 214.26 240.568 223.731 232.368 242.982C240.216 249.487 248.033 254.532 254.968 258.39C259.759 260.991 264.443 263.242 268.765 265.1Z" fill="white"/>
<path d="M229.919 240.85C238.04 222.609 252.447 213.129 257.474 210.283C251.055 204.649 244.711 197.803 239.093 189.579C237.275 189.423 231.78 189.258 225.679 191.375C216.029 194.791 209.389 202.263 206.004 213.533C213.246 224.639 221.55 233.602 229.919 240.85Z" fill="white"/>
<path d="M203.925 210.229C208.823 196.653 217.868 190.884 224.82 188.494C229.721 186.809 234.248 186.444 237.07 186.475C232.84 179.576 230.112 172.187 228.342 164.874C228.24 164.826 228.188 164.727 228.136 164.678C227.878 164.382 221.829 157.226 208.242 158.019C193.852 158.882 187.902 168.05 187.854 168.152C187.855 168.203 187.805 168.204 187.806 168.254C189.238 176.281 191.533 184.588 194.984 192.766C197.639 199.048 200.636 204.869 203.925 210.229Z" fill="white"/>
<path d="M195.243 90.964C195.195 91.066 190.796 102.008 187.974 118.352C191.354 116.202 199.036 112.685 210.175 115.279C219.085 117.323 224.119 121.833 226.655 124.994C228.279 111.501 231.403 102.153 231.544 101.696C231.592 101.594 231.64 101.492 231.639 101.442C229.6 100.334 225.169 98.0765 218.973 95.7624C211.811 93.0191 199.531 91.2097 195.337 90.609C195.339 90.7098 195.291 90.8117 195.243 90.964Z" fill="white"/>
<path d="M209.496 118.246C195.976 115.106 188.163 121.953 188.063 122.006C187.866 122.212 187.616 122.319 187.366 122.376C187.322 122.679 187.278 122.983 187.234 123.286C185.707 134.259 184.858 148.641 187.108 164.206C190.062 161.008 196.648 155.654 208.07 154.965C217.631 154.424 223.895 157.493 227.323 159.927C226.294 154.259 225.821 148.677 225.708 143.439C225.619 139.309 225.736 135.376 226.012 131.792C226.048 131.136 226.133 130.428 226.17 129.772C226.01 129.373 222.206 121.204 209.496 118.246Z" fill="white"/>
<path d="M292.386 272.895C292.487 272.892 292.537 272.891 292.639 272.939C292.791 272.985 292.943 273.032 293.094 273.028C293.246 273.075 293.297 273.074 293.347 273.072C293.397 273.071 293.499 273.119 293.549 273.118C309.448 276.802 316.143 269.531 318.711 264.831C321.232 260.234 321.774 254.98 320.306 249.978C318.838 244.977 315.526 240.877 310.938 238.372C310.172 237.938 308.544 237.172 307.425 236.696C304.995 236.152 298.308 234.405 289.51 230.594C286.96 233.831 276.925 247.434 271.537 266.261C281.905 270.436 289.754 272.306 292.386 272.895Z" fill="white"/>
<path d="M283.518 227.739C276.694 224.332 268.327 219.402 259.965 212.407C258.023 213.463 251.954 216.99 245.545 223.497C255.582 231.106 266.906 237.625 278.871 241.205C282.172 235.43 285.156 231.275 286.725 229.271C285.656 228.794 284.588 228.317 283.518 227.739Z" fill="#EAEFFE"/>
<path d="M224.861 188.488C229.762 186.803 234.289 186.438 237.112 186.468C232.882 179.569 230.153 172.179 228.383 164.866C228.281 164.818 228.229 164.719 228.177 164.67C227.919 164.374 222.336 157.811 209.944 157.969C210.284 159.724 210.625 161.53 211.016 163.284C212.807 171.605 215.352 179.805 218.496 187.739C218.922 188.787 219.346 189.784 219.772 190.832C221.462 189.782 223.21 189.033 224.861 188.488Z" fill="#EAEFFE"/>
<path d="M225.724 191.42C224.024 192.016 222.478 192.76 220.934 193.555C223.418 198.984 226.353 204.252 230.031 208.947C233.811 213.689 238.283 217.81 243.049 221.571C248.964 215.528 254.679 211.858 257.466 210.277C251.047 204.643 244.703 197.798 239.085 189.574C237.269 189.469 231.773 189.253 225.724 191.42Z" fill="#EAEFFE"/>
<path d="M209.204 115.058C209.508 115.1 209.862 115.192 210.167 115.285C219.079 117.331 224.114 121.841 226.651 125.003C228.276 111.507 231.4 102.157 231.541 101.7C231.589 101.598 231.638 101.496 231.636 101.445C229.597 100.337 225.165 98.0792 218.967 95.7646C217.596 95.2445 216.023 94.7295 214.35 94.2673C214.069 95.2822 213.79 96.3474 213.46 97.4139C211.62 103.205 210.184 109.086 209.204 115.058Z" fill="#EAEFFE"/>
<path d="M313.887 240.301C312.965 239.568 311.994 238.937 310.975 238.358C310.21 237.924 308.582 237.159 307.463 236.683C305.034 236.139 298.348 234.392 289.553 230.582C288.328 232.174 285.292 236.178 281.894 242.106C288.022 243.665 294.285 244.466 300.675 244.206C305.304 243.99 310.271 243.111 313.887 240.301Z" fill="#EAEFFE"/>
<path d="M209.484 118.241C209.231 118.197 209.029 118.152 208.776 118.108C208.733 118.461 208.691 118.866 208.649 119.22C207.191 131.101 207.602 143.137 209.419 154.937C218.234 154.717 224.092 157.595 227.318 159.934C226.288 154.264 225.815 148.681 225.702 143.442C225.613 139.311 225.73 135.377 226.005 131.791C226.041 131.135 226.127 130.427 226.163 129.771C226.003 129.372 222.198 121.2 209.484 118.241Z" fill="#EAEFFE"/>
<path d="M561.083 16.717C564.343 15.035 572.532 16.0452 575.491 18.9907C578.449 21.9865 580.907 27.1363 580.449 27.3767C579.99 27.6172 565.147 31.4791 565.147 31.4791L550.798 38.1243C550.847 38.1759 545.749 24.6475 561.083 16.717Z" fill="#EAEFFE"/>
<path d="M561.087 16.7121C564.346 15.0303 572.535 16.0403 575.493 18.9853C578.451 21.9806 580.908 27.1296 580.45 27.37C580.297 27.4669 578.118 28.0675 575.434 28.7562C572.486 25.3077 565.434 18.3316 556.695 19.4739C557.976 18.4983 559.406 17.5769 561.087 16.7121Z" fill="white"/>
<path d="M593.823 92.5158C594.634 92.2841 616.536 85.5265 616.576 88.3479C616.614 91.2197 594.51 100.34 592.131 100.885C589.753 101.43 563.927 107.989 563.927 107.989C563.927 107.989 555.496 108.937 556.995 107.162C558.493 105.436 577.408 97.0428 593.823 92.5158Z" fill="#ADAEF0"/>
<path d="M477.844 266.23C474.936 260.916 474.311 254.853 475.998 249.048C477.684 243.295 481.516 238.501 486.817 235.66C487.429 235.323 488.396 234.843 489.363 234.413C489.57 234.166 489.876 233.972 490.231 233.88C490.231 233.88 490.484 233.836 490.889 233.746C491.092 233.65 491.295 233.605 491.448 233.508C491.652 233.412 491.903 233.418 492.105 233.423C495.702 232.505 504.218 230.097 514.506 224.96C527.035 218.721 544.718 207.117 558.094 187.291C570.169 169.398 571.399 147.404 570.267 132.105C569.065 115.444 564.903 102.841 564.856 102.689C564.571 101.875 565.043 101.03 565.803 100.797C566.616 100.515 567.463 100.939 567.697 101.752C567.839 102.209 570.912 111.559 572.586 125.057C575.174 121.846 580.158 117.384 589.069 115.338C600.209 112.743 607.893 116.261 611.272 118.411C608.451 102.062 604.05 91.1672 604.003 91.0149C603.667 90.2505 604.039 89.3526 604.851 89.0705C605.614 88.7367 606.513 89.1119 606.798 89.9254C607.038 90.4857 612.3 103.469 615.005 122.889C616.01 130.02 616.734 138.505 616.532 147.875C616.226 162.079 613.813 178.147 607.122 194.057C592.041 229.867 565.453 250.221 545.822 261.071C525.935 272.066 509.385 275.534 506.754 276.073C493.488 279.119 482.933 275.58 477.844 266.23ZM478.901 249.927C477.433 254.93 478.025 260.187 480.495 264.784C483.063 269.535 489.76 276.758 505.66 273.072C505.71 273.073 505.812 273.026 505.862 273.027C505.862 273.027 505.963 273.029 506.115 272.983C506.267 272.936 506.419 272.889 506.57 272.893C506.671 272.896 506.722 272.847 506.823 272.849C509.455 272.31 517.304 270.439 527.673 266.263C522.285 247.431 512.249 233.825 509.699 230.586C500.901 234.398 494.162 236.146 491.782 236.691C490.664 237.167 489.035 237.933 488.27 238.367C483.684 240.773 480.369 244.924 478.901 249.927ZM612.023 123.319C611.979 123.015 611.935 122.712 611.891 122.408C611.641 122.352 611.391 122.245 611.194 122.038C611.095 121.985 603.282 115.138 589.762 118.278C577.052 121.237 573.247 129.458 573.088 129.807C573.124 130.463 573.211 131.12 573.246 131.827C573.521 135.412 573.638 139.346 573.549 143.476C573.436 148.715 572.964 154.247 571.934 159.967C575.362 157.533 581.625 154.463 591.187 155.004C602.609 155.692 609.194 161.047 612.148 164.246C614.398 148.678 613.55 134.293 612.023 123.319ZM604.328 192.778C607.781 184.548 610.075 176.29 611.507 168.262C611.509 168.211 611.458 168.21 611.459 168.159C611.411 168.057 605.462 158.888 591.071 158.025C577.485 157.233 571.435 164.39 571.177 164.686C571.125 164.785 571.023 164.833 570.971 164.882C569.201 172.196 566.473 179.587 562.243 186.487C565.065 186.457 569.593 186.771 574.493 188.506C581.494 190.948 590.54 196.667 595.386 210.245C598.626 204.883 601.623 199.061 604.328 192.778ZM593.249 213.568C589.866 202.245 583.225 194.772 573.574 191.406C567.473 189.288 561.977 189.454 560.16 189.61C554.541 197.836 548.196 204.683 541.777 210.319C546.804 213.166 561.211 222.647 569.332 240.893C577.702 233.592 586.007 224.626 593.249 213.568ZM544.37 258.313C551.304 254.504 559.121 249.458 566.971 242.9C558.721 223.644 542.702 214.173 539.365 212.376C530.952 219.323 522.632 224.306 515.807 227.714C514.738 228.242 513.668 228.77 512.6 229.247C515.834 233.461 525.224 246.647 530.571 265.025C534.792 263.215 539.476 260.963 544.37 258.313Z" fill="#302EAD"/>
<path d="M555.667 108.069C555.668 108.018 555.668 108.018 555.669 107.968C555.623 107.765 555.577 107.563 555.583 107.311L549.608 38.5694C549.564 38.266 549.57 38.0141 549.626 37.7131C549.578 37.6111 549.529 37.5595 549.531 37.4587C548.303 33.6482 548.488 29.7722 549.772 26.2763C548.464 26.1933 547.111 25.8571 545.814 25.2704C544.068 24.4709 542.384 23.1186 541.314 21.3279C540.778 20.4578 540.347 19.4391 540.116 18.4758C539.886 17.4621 539.807 16.4521 539.878 15.4963C539.949 14.5405 540.171 13.5885 540.492 12.6893C540.814 11.7902 541.285 10.9955 541.957 10.2059C542.112 10.0082 542.316 9.91245 542.569 9.86836C543.125 9.78143 543.721 10.1491 543.809 10.7561L543.855 10.9589C543.99 11.7182 544.073 12.5266 544.159 13.2344C544.244 13.9421 544.38 14.651 544.517 15.3096C544.654 15.9682 544.792 16.5764 544.981 17.1355C545.171 17.6946 545.411 18.255 545.652 18.765C545.943 19.2762 546.234 19.7875 546.678 20.2521C547.071 20.7155 547.514 21.1802 548.058 21.6473C548.899 22.3739 549.892 23.0538 550.985 23.7866C553.03 20.0577 556.47 17.0692 560.884 15.6673C565.399 14.2176 570.123 14.7889 574.009 16.801C574.236 15.6475 574.461 14.5443 574.533 13.5381C574.612 12.2297 574.537 11.0183 574.26 9.85222C574.121 9.29437 573.932 8.68488 573.693 8.12451C573.503 7.56541 573.214 6.95342 572.925 6.34143C572.636 5.72944 572.347 5.11747 572.008 4.45386C571.669 3.84061 571.332 3.12661 570.993 2.46299L570.897 2.25898C570.8 2.05499 570.806 1.80317 570.861 1.60294C571.024 1.05262 571.586 0.663473 572.137 0.828399C573.089 1.05374 573.886 1.47679 574.632 1.94897C575.376 2.47151 576.069 3.04318 576.658 3.76344C577.247 4.48371 577.785 5.25308 578.17 6.11944C578.554 6.9858 578.887 7.90128 579.068 8.86336C579.429 10.7875 579.184 12.7973 578.542 14.5452C578.008 15.9431 577.175 17.1823 576.197 18.1659C579.124 20.2548 581.427 23.2857 582.608 26.9438C582.655 27.0962 582.702 27.2486 582.699 27.3997C582.697 27.4501 582.697 27.4501 582.696 27.5004C582.795 27.6037 582.892 27.7573 582.939 27.9097L617.932 87.446C618.029 87.5996 618.127 87.7533 618.224 87.9069C618.223 87.9573 618.272 88.0089 618.272 88.0089L618.271 88.0592L618.27 88.1096C618.269 88.16 618.269 88.16 618.268 88.2104C618.314 88.4131 618.36 88.6158 618.355 88.8173C618.326 90.1773 616.723 92.1029 608.43 95.8272C607.717 96.1622 606.818 95.8374 606.481 95.073C606.144 94.359 606.466 93.4599 607.229 93.1261C611.553 91.1676 613.596 89.9082 614.569 89.1765C613.663 89.1539 612.099 89.2157 609.521 89.605C603.607 90.5159 595.097 92.6221 586.168 95.4737C577.088 98.3216 568.857 101.543 563.509 104.232C561.268 105.336 560.041 106.162 559.324 106.698C560.432 106.726 562.55 106.628 566.445 105.918C567.254 105.787 567.998 106.31 568.132 107.12C568.266 107.929 567.746 108.672 566.937 108.803C558.333 110.605 556.184 109.795 555.667 108.069ZM554.437 34.2548C557.236 32.9638 561.097 31.4977 565.206 30.189C569.315 28.8803 573.317 27.8713 576.353 27.2919C577.466 27.0676 578.476 26.9416 579.334 26.8622C576.51 19.988 568.831 16.2687 561.629 18.5082C554.425 20.7981 550.335 28.2055 551.993 35.4538C552.655 35.1175 553.469 34.7346 554.437 34.2548Z" fill="#302EAD"/>
<path d="M580.47 29.8113L613.81 86.5345C612.55 86.5535 610.985 86.716 609.064 87.0209C605.879 87.4959 601.981 88.3563 597.676 89.4081L570.808 31.6367C575.978 30.2033 579.364 29.7333 580.47 29.8113Z" fill="white"/>
<path d="M530.461 265.1C525.164 246.727 515.775 233.544 512.49 229.33C513.508 228.851 514.577 228.324 515.697 227.798C522.521 224.39 530.89 219.46 539.253 212.463C542.589 214.26 558.658 223.731 566.859 242.982C559.011 249.487 551.194 254.532 544.259 258.39C539.467 260.991 534.784 263.242 530.461 265.1Z" fill="white"/>
<path d="M569.308 240.85C561.186 222.609 546.78 213.129 541.752 210.283C548.171 204.649 554.516 197.803 560.134 189.579C561.951 189.423 567.446 189.258 573.547 191.375C583.197 194.791 589.838 202.263 593.223 213.533C585.981 224.639 577.676 233.602 569.308 240.85Z" fill="white"/>
<path d="M595.301 210.229C590.404 196.653 581.359 190.884 574.407 188.494C569.506 186.809 564.979 186.444 562.157 186.475C566.386 179.576 569.115 172.187 570.885 164.874C570.987 164.826 571.039 164.727 571.09 164.678C571.349 164.382 577.398 157.226 590.984 158.019C605.375 158.882 611.324 168.05 611.373 168.152C611.371 168.203 611.422 168.204 611.421 168.254C609.988 176.281 607.693 184.588 604.242 192.766C601.588 199.048 598.591 204.869 595.301 210.229Z" fill="white"/>
<path d="M603.983 90.966C604.031 91.0679 608.43 102.01 611.252 118.354C607.873 116.204 600.191 112.687 589.052 115.281C580.142 117.325 575.108 121.835 572.571 124.996C570.947 111.503 567.824 102.155 567.682 101.698C567.634 101.596 567.586 101.494 567.587 101.444C569.626 100.336 574.058 98.0784 580.253 95.7644C587.415 93.021 599.696 91.2116 603.89 90.611C603.888 90.7117 603.936 90.8137 603.983 90.966Z" fill="white"/>
<path d="M589.73 118.246C603.251 115.106 611.064 121.953 611.163 122.006C611.361 122.212 611.61 122.319 611.861 122.376C611.905 122.679 611.949 122.983 611.992 123.286C613.52 134.259 614.369 148.641 612.119 164.206C609.165 161.008 602.579 155.654 591.157 154.965C581.595 154.424 575.332 157.493 571.904 159.927C572.933 154.259 573.406 148.677 573.518 143.439C573.607 139.309 573.491 135.376 573.215 131.792C573.179 131.136 573.093 130.428 573.057 129.772C573.217 129.373 577.02 121.204 589.73 118.246Z" fill="white"/>
<path d="M506.837 272.895C506.736 272.892 506.686 272.891 506.584 272.939C506.432 272.985 506.28 273.032 506.129 273.028C505.976 273.075 505.926 273.074 505.876 273.072C505.825 273.071 505.724 273.119 505.673 273.118C489.775 276.802 483.08 269.531 480.511 264.831C477.99 260.234 477.449 254.98 478.917 249.978C480.385 244.977 483.697 240.877 488.285 238.372C489.05 237.938 490.679 237.172 491.797 236.696C494.227 236.152 500.915 234.405 509.712 230.594C512.262 233.831 522.297 247.434 527.685 266.261C517.318 270.436 509.469 272.306 506.837 272.895Z" fill="white"/>
<path d="M515.708 227.739C522.532 224.332 530.899 219.402 539.261 212.407C541.203 213.463 547.273 216.99 553.681 223.497C543.644 231.106 532.32 237.625 520.355 241.205C517.054 235.43 514.071 231.275 512.502 229.271C513.57 228.794 514.638 228.317 515.708 227.739Z" fill="#EAEFFE"/>
<path d="M574.366 188.488C569.464 186.803 564.937 186.438 562.115 186.468C566.345 179.569 569.074 172.179 570.844 164.866C570.945 164.818 570.998 164.719 571.049 164.67C571.308 164.374 576.891 157.811 589.282 157.969C588.942 159.724 588.601 161.53 588.211 163.284C586.419 171.605 583.874 179.805 580.731 187.739C580.305 188.787 579.881 189.784 579.455 190.832C577.764 189.782 576.017 189.033 574.366 188.488Z" fill="#EAEFFE"/>
<path d="M573.502 191.42C575.202 192.016 576.748 192.76 578.293 193.555C575.808 198.984 572.873 204.252 569.195 208.947C565.416 213.689 560.944 217.81 556.178 221.571C550.262 215.528 544.548 211.858 541.761 210.277C548.179 204.643 554.523 197.798 560.141 189.574C561.957 189.469 567.453 189.253 573.502 191.42Z" fill="#EAEFFE"/>
<path d="M590.022 115.058C589.719 115.1 589.364 115.192 589.06 115.285C580.147 117.331 575.112 121.841 572.575 125.003C570.951 111.507 567.827 102.157 567.685 101.7C567.637 101.598 567.589 101.496 567.59 101.445C569.63 100.337 574.062 98.0792 580.259 95.7646C581.631 95.2445 583.204 94.7295 584.877 94.2673C585.157 95.2822 585.437 96.3474 585.766 97.4139C587.607 103.205 589.042 109.086 590.022 115.058Z" fill="#EAEFFE"/>
<path d="M485.339 240.301C486.262 239.568 487.232 238.937 488.252 238.358C489.017 237.924 490.645 237.159 491.763 236.683C494.192 236.139 500.878 234.392 509.673 230.582C510.898 232.174 513.935 236.178 517.332 242.106C511.204 243.665 504.942 244.466 498.551 244.206C493.922 243.99 488.955 243.111 485.339 240.301Z" fill="#EAEFFE"/>
<path d="M589.742 118.241C589.995 118.197 590.198 118.152 590.451 118.108C590.493 118.461 590.535 118.866 590.578 119.22C592.035 131.101 591.625 143.137 589.808 154.937C580.993 154.717 575.134 157.595 571.909 159.934C572.938 154.264 573.412 148.681 573.525 143.442C573.614 139.311 573.497 135.377 573.221 131.791C573.185 131.135 573.1 130.427 573.063 129.771C573.223 129.372 577.028 121.2 589.742 118.241Z" fill="#EAEFFE"/>
<g filter="url(#filter0_i)">
<path d="M573 343.925L689.503 149H751.557L633.854 343.925L710.721 344.34V270.932H762.767V344.34H800V394.108H762.767V453H710.721V394.108H573V343.925Z" fill="#302EAD"/>
</g>
<g filter="url(#filter1_i)">
<path d="M0 343.925L116.503 149H178.557L60.8536 343.925L137.721 344.34V270.932H189.767V344.34H227V394.108H189.767V453H137.721V394.108H0V343.925Z" fill="#302EAD"/>
</g>
<g filter="url(#filter2_i)">
<path d="M400.601 149C420.365 149 438.126 152.733 453.884 160.2C469.642 167.667 482.996 178.2 493.947 191.8C504.897 205.133 513.31 221.267 519.186 240.2C525.062 258.867 528 279.533 528 302.2C528 324.6 524.929 345.133 518.786 363.8C512.643 382.2 503.962 398.067 492.745 411.4C481.527 424.467 468.04 434.733 452.282 442.2C436.524 449.4 419.03 453 399.8 453C379.768 453 361.874 449.4 346.116 442.2C330.358 434.733 317.004 424.333 306.053 411C295.103 397.667 286.69 381.8 280.814 363.4C274.938 344.733 272 324.067 272 301.4C272 278.733 275.071 258.067 281.214 239.4C287.624 220.733 296.438 204.733 307.656 191.4C318.873 177.8 332.361 167.4 348.119 160.2C363.877 152.733 381.371 149 400.601 149ZM400.601 404.6C424.104 404.6 442.133 395.667 454.685 377.8C467.238 359.933 473.515 334.6 473.515 301.8C473.515 268.467 467.105 242.867 454.285 225C441.732 206.867 423.837 197.8 400.601 197.8C377.098 197.8 358.669 206.867 345.315 225C332.227 242.867 325.684 268.467 325.684 301.8C325.684 334.867 332.227 360.333 345.315 378.2C358.669 395.8 377.098 404.6 400.601 404.6Z" fill="#302EAD"/>
</g>
<path d="M467.911 143.427C465.944 144.411 332.151 138.688 330.183 138.508C328.215 138.328 327.232 136.541 328.215 134.573C330.99 129.021 331.258 125.325 334.118 119.816C339.786 108.9 344.501 103.281 353.794 95.2222C361.362 88.6584 366.088 85.0502 375.437 81.4493C386.643 77.1332 393.945 76.8183 405.934 77.5142C411.358 77.8291 414.442 78.1396 419.706 79.4818C432.037 82.6253 438.888 86.5884 448.236 95.2222C455.291 101.739 458.551 106.381 462.992 114.898C467.655 123.839 470.862 138.508 470.863 139.492C470.863 140.476 469.878 142.443 467.911 143.427Z" fill="white"/>
<path d="M401.016 86.368C370.519 86.368 351.827 97.1894 351.827 97.1894C351.827 97.1894 364.616 78.4978 401.016 77.514C437.415 76.5302 455.123 102.108 455.123 102.108C455.123 102.108 431.513 86.3679 401.016 86.368Z" fill="#EAEFFE"/>
<path fill-rule="evenodd" clip-rule="evenodd" d="M429.338 63.029C428.881 60.6221 429.93 58.1002 432.159 56.8135C434.999 55.1736 438.554 56.0826 440.188 58.9132C441.822 61.7438 440.814 65.3455 438.017 66.9601C435.57 68.3729 432.467 67.842 430.672 65.7427C426.721 68.0821 421.374 72.0403 418.414 77.8134C434.445 81.1578 447.438 89.3331 457.119 102.266C467.045 115.522 470.828 130.35 472.158 138.002C472.457 139.629 471.993 141.349 470.871 142.635C470.447 143.112 469.93 143.527 469.405 143.83C468.488 144.36 467.463 144.603 466.4 144.578L332.442 140.223C330.654 140.153 329.044 139.282 328.008 137.79C326.971 136.298 326.703 134.421 327.349 132.713C330.109 125.081 336.518 110.348 348.706 97.8532C363.662 82.483 382.569 75.1671 404.852 76.121C408.498 76.2804 411.976 76.653 415.33 77.2137C418.623 70.2027 424.838 65.6276 429.338 63.029ZM464.689 122.34C462.427 116.505 459.25 110.094 454.717 104.059C448.251 95.4833 440.309 89.0945 430.848 84.9183L426.891 83.3125C420.13 80.8869 412.754 79.5137 404.786 79.2364C386.737 78.4508 371.031 83.3382 357.905 93.7036C357.905 93.7036 350.882 100.335 346.909 105.06C342.801 109.946 337.323 118.302 337.323 118.302C333.865 124.422 331.593 129.972 330.234 133.775C329.918 134.539 330.058 135.387 330.529 136.102C331 136.817 331.745 137.2 332.583 137.239L466.584 141.568C467.354 141.589 468.103 141.272 468.633 140.676C469.163 140.08 469.41 139.298 469.252 138.519C468.661 135.376 467.679 130.95 466.007 125.934L464.689 122.34Z" fill="#302EAD"/>
<mask id="path-44-inside-1" fill="white">
<path fill-rule="evenodd" clip-rule="evenodd" d="M403.105 102.501C395.017 102.174 384.536 102.13 376.416 102.163C369.273 102.191 363.469 107.861 363.18 114.998C362.866 122.734 369.117 129.148 376.86 129.132C384.712 129.115 394.369 129.177 401.93 129.483C409.514 129.79 419.187 130.512 427.04 131.165C434.755 131.806 441.504 125.918 441.817 118.183C442.106 111.045 436.779 104.924 429.661 104.318C423.749 103.814 416.579 103.25 410 102.855L415 113.999L401 120.999L408 111.999L403.105 102.501Z"/>
</mask>
<path fill-rule="evenodd" clip-rule="evenodd" d="M403.105 102.501C395.017 102.174 384.536 102.13 376.416 102.163C369.273 102.191 363.469 107.861 363.18 114.998C362.866 122.734 369.117 129.148 376.86 129.132C384.712 129.115 394.369 129.177 401.93 129.483C409.514 129.79 419.187 130.512 427.04 131.165C434.755 131.806 441.504 125.918 441.817 118.183C442.106 111.045 436.779 104.924 429.661 104.318C423.749 103.814 416.579 103.25 410 102.855L415 113.999L401 120.999L408 111.999L403.105 102.501Z" fill="#FF5E5E"/>
<path d="M403.044 104C405.191 104.087 407.51 104.208 409.91 104.352L410.09 101.358C407.675 101.213 405.337 101.091 403.166 101.003L403.044 104ZM403.105 102.501L405.771 101.127L404.971 99.5746L403.226 99.5039L403.105 102.501ZM401.93 129.483L401.809 132.48L401.93 129.483ZM408 111.999L410.368 113.841L411.545 112.328L410.667 110.625L408 111.999ZM401 120.999L398.632 119.157L402.342 123.682L401 120.999ZM415 113.999L416.342 116.682L418.915 115.396L417.737 112.771L415 113.999ZM410 102.855L410.18 99.8603L405.235 99.5637L407.263 104.083L410 102.855ZM376.428 105.163C384.541 105.13 394.967 105.174 402.983 105.499L403.226 99.5039C395.068 99.1733 384.531 99.1302 376.404 99.1626L376.428 105.163ZM427.288 128.175C419.427 127.521 409.702 126.795 402.052 126.485L401.809 132.48C409.326 132.785 418.947 133.502 426.791 134.154L427.288 128.175ZM402.052 126.485C394.424 126.177 384.714 126.115 376.853 126.132L376.866 132.132C384.71 132.115 394.315 132.177 401.809 132.48L402.052 126.485ZM400.438 103.876L405.333 113.373L410.667 110.625L405.771 101.127L400.438 103.876ZM405.632 110.157L398.632 119.157L403.368 122.841L410.368 113.841L405.632 110.157ZM402.342 123.682L416.342 116.682L413.658 111.316L399.658 118.316L402.342 123.682ZM409.82 105.85C416.364 106.242 423.506 106.804 429.407 107.307L429.916 101.329C423.992 100.824 416.794 100.257 410.18 99.8603L409.82 105.85ZM417.737 112.771L412.737 101.627L407.263 104.083L412.263 115.227L417.737 112.771ZM360.182 114.877C359.799 124.341 367.44 132.151 376.866 132.132L376.853 126.132C370.795 126.144 365.934 121.127 366.177 115.12L360.182 114.877ZM438.819 118.061C438.576 124.069 433.326 128.677 427.288 128.175L426.791 134.154C436.185 134.935 444.431 127.768 444.815 118.304L438.819 118.061ZM444.815 118.304C445.168 109.584 438.655 102.073 429.916 101.329L429.407 107.307C434.903 107.775 439.044 112.505 438.819 118.061L444.815 118.304ZM366.177 115.12C366.402 109.564 370.912 105.185 376.428 105.163L376.404 99.1626C367.634 99.1976 360.535 106.158 360.182 114.877L366.177 115.12Z" fill="#302EAD" mask="url(#path-44-inside-1)"/>
<path d="M349 366C350.657 366 352 364.657 352 363C352 361.343 350.657 360 349 360C347.343 360 346 361.343 346 363C346 364.657 347.343 366 349 366Z" fill="#302EAD"/>
<path d="M341 344C342.657 344 344 342.657 344 341C344 339.343 342.657 338 341 338C339.343 338 338 339.343 338 341C338 342.657 339.343 344 341 344Z" fill="#302EAD"/>
<path d="M450 366C448.343 366 447 364.657 447 363C447 361.343 448.343 360 450 360C451.657 360 453 361.343 453 363C453 364.657 451.657 366 450 366Z" fill="#302EAD"/>
<path d="M458 344C456.343 344 455 342.657 455 341C455 339.343 456.343 338 458 338C459.657 338 461 339.343 461 341C461 342.657 459.657 344 458 344Z" fill="#302EAD"/>
<path d="M472.805 499.726C468.779 498.222 462.98 496.822 455.678 495.681C440.805 493.296 420.993 492 400 492C378.953 492 359.195 493.296 344.322 495.681C337.02 496.822 331.275 498.222 327.195 499.726C322.362 501.541 320 503.615 320 506C320 508.385 322.362 510.459 327.195 512.274C331.221 513.778 337.02 515.178 344.322 516.319C359.195 518.704 379.007 520 400 520C421.047 520 440.805 518.704 455.678 516.319C462.98 515.178 468.725 513.778 472.805 512.274C477.638 510.459 480 508.385 480 506C480 503.615 477.638 501.541 472.805 499.726Z" fill="#302EAD"/>
<defs>
<filter id="filter0_i" x="573" y="149" width="227" height="304" filterUnits="userSpaceOnUse" color-interpolation-filters="sRGB">
<feFlood flood-opacity="0" result="BackgroundImageFix"/>
<feBlend mode="normal" in="SourceGraphic" in2="BackgroundImageFix" result="shape"/>
<feColorMatrix in="SourceAlpha" type="matrix" values="0 0 0 0 0 0 0 0 0 0 0 0 0 0 0 0 0 0 127 0" result="hardAlpha"/>
<feOffset dx="8"/>
<feComposite in2="hardAlpha" operator="arithmetic" k2="-1" k3="1"/>
<feColorMatrix type="matrix" values="0 0 0 0 0.0784314 0 0 0 0 0.0784314 0 0 0 0 0.0862745 0 0 0 0.4 0"/>
<feBlend mode="normal" in2="shape" result="effect1_innerShadow"/>
</filter>
<filter id="filter1_i" x="0" y="149" width="227" height="304" filterUnits="userSpaceOnUse" color-interpolation-filters="sRGB">
<feFlood flood-opacity="0" result="BackgroundImageFix"/>
<feBlend mode="normal" in="SourceGraphic" in2="BackgroundImageFix" result="shape"/>
<feColorMatrix in="SourceAlpha" type="matrix" values="0 0 0 0 0 0 0 0 0 0 0 0 0 0 0 0 0 0 127 0" result="hardAlpha"/>
<feOffset dx="8"/>
<feComposite in2="hardAlpha" operator="arithmetic" k2="-1" k3="1"/>
<feColorMatrix type="matrix" values="0 0 0 0 0.0784314 0 0 0 0 0.0784314 0 0 0 0 0.0862745 0 0 0 0.4 0"/>
<feBlend mode="normal" in2="shape" result="effect1_innerShadow"/>
</filter>
<filter id="filter2_i" x="272" y="149" width="256" height="304" filterUnits="userSpaceOnUse" color-interpolation-filters="sRGB">
<feFlood flood-opacity="0" result="BackgroundImageFix"/>
<feBlend mode="normal" in="SourceGraphic" in2="BackgroundImageFix" result="shape"/>
<feColorMatrix in="SourceAlpha" type="matrix" values="0 0 0 0 0 0 0 0 0 0 0 0 0 0 0 0 0 0 127 0" result="hardAlpha"/>
<feOffset dx="8"/>
<feComposite in2="hardAlpha" operator="arithmetic" k2="-1" k3="1"/>
<feColorMatrix type="matrix" values="0 0 0 0 0.0784314 0 0 0 0 0.0784314 0 0 0 0 0.0862745 0 0 0 0.4 0"/>
<feBlend mode="normal" in2="shape" result="effect1_innerShadow"/>
</filter>
</defs>
</svg>
